Point(1) = {0, 0, 0, 0.25};
Point(2) = {1, 0, 0, 0.25};
Point(3) = {1, 0, 1, 0.25};
Point(4) = {0, 1, 0, 0.25};
Point(5) = {0, 1, 1, 0.25};
Point(6) = {0, 0, 1, 0.25};
Point(7) = {1, 1, 1, 0.25};
Point(8) = {1, 1, 0, 0.25};
Line(1) = {4, 1};
Line(2) = {1, 2};
Line(3) = {2, 8};
Line(4) = {8, 4};
Line(5) = {5, 6};
Line(6) = {6, 3};
Line(7) = {3, 7};
Line(8) = {7, 5};
Line(9) = {5, 4};
Line(10) = {1, 6};
Line(11) = {2, 3};
Line(12) = {8, 7};
Line Loop(13) = {5, -10, -1, -9};
Plane Surface(14) = {13};
Line Loop(15) = {8, 9, -4, 12};
Plane Surface(16) = {15};
Line Loop(17) = {6, 7, 8, 5};
Plane Surface(18) = {17};
Line Loop(19) = {2, 11, -6, -10};
Plane Surface(20) = {19};
Line Loop(21) = {3, 12, -7, -11};
Plane Surface(22) = {21};
Line Loop(23) = {2, 3, 4, 1};
Plane Surface(24) = {23};
Surface Loop(25) = {18, 20, 24, 22, 16, 14};
Volume(26) = {25};
Physical Volume(26) = {26};
